<svg width="32" height="32" viewBox="0 0 32 32" fill="none" xmlns="http://www.w3.org/2000/svg">
  <!-- 背景圆形 -->
  <circle cx="16" cy="16" r="16" fill="#1e293b"/>
  
  <!-- 简化的计算器图标 -->
  <g transform="translate(6, 6)">
    <!-- 计算器主体 -->
    <rect x="2" y="2" width="16" height="20" rx="2" fill="white" stroke="#1e293b" stroke-width="0.5"/>
    
    <!-- 显示屏 -->
    <rect x="3" y="3" width="14" height="5" rx="1" fill="#f1f5f9"/>
    
    <!-- 简化的按钮网格 - 只显示关键按钮 -->
    <g fill="#1e293b">
      <!-- 数字按钮 -->
      <rect x="3" y="10" width="3" height="3" rx="0.5"/>
      <rect x="7" y="10" width="3" height="3" rx="0.5"/>
      <rect x="11" y="10" width="3" height="3" rx="0.5"/>
      
      <rect x="3" y="14" width="3" height="3" rx="0.5"/>
      <rect x="7" y="14" width="3" height="3" rx="0.5"/>
      <rect x="11" y="14" width="3" height="3" rx="0.5"/>
      
      <rect x="3" y="18" width="3" height="3" rx="0.5"/>
      <rect x="7" y="18" width="3" height="3" rx="0.5"/>
      <rect x="11" y="18" width="3" height="3" rx="0.5"/>
    </g>
  </g>
</svg>
