<svg width="32" height="32" viewBox="0 0 32 32" fill="none" xmlns="http://www.w3.org/2000/svg">
  <!-- 背景圆形 -->
  <circle cx="16" cy="16" r="16" fill="#1e293b"/>
  
  <!-- 计算器图标 -->
  <g transform="translate(8, 8)">
    <!-- 计算器主体 -->
    <rect x="2" y="2" width="12" height="16" rx="2" fill="white" stroke="#1e293b" stroke-width="0.5"/>
    
    <!-- 显示屏 -->
    <rect x="3" y="3" width="10" height="4" rx="1" fill="#f1f5f9"/>
    
    <!-- 按钮网格 -->
    <g fill="#1e293b">
      <!-- 第一行按钮 -->
      <rect x="3" y="8" width="2" height="2" rx="0.5"/>
      <rect x="6" y="8" width="2" height="2" rx="0.5"/>
      <rect x="9" y="8" width="2" height="2" rx="0.5"/>
      <rect x="12" y="8" width="2" height="2" rx="0.5"/>
      
      <!-- 第二行按钮 -->
      <rect x="3" y="11" width="2" height="2" rx="0.5"/>
      <rect x="6" y="11" width="2" height="2" rx="0.5"/>
      <rect x="9" y="11" width="2" height="2" rx="0.5"/>
      <rect x="12" y="11" width="2" height="2" rx="0.5"/>
      
      <!-- 第三行按钮 -->
      <rect x="3" y="14" width="2" height="2" rx="0.5"/>
      <rect x="6" y="14" width="2" height="2" rx="0.5"/>
      <rect x="9" y="14" width="2" height="2" rx="0.5"/>
      <rect x="12" y="14" width="2" height="2" rx="0.5"/>
    </g>
  </g>
</svg>
